<svg xmlns="http://www.w3.org/2000/svg" xmlns:xlink="http://www.w3.org/1999/xlink" viewBox="0 0 536.94 180.07"><defs><image id="image" width="512" height="512" xlink:href="../../../../../hexagon.png"/></defs><g id="Layer_2" data-name="Layer 2"><g id="Layer_1-2" data-name="Layer 1"><path d="M254.63,70h6.65v2h-.39l-6.26-.54Zm.31,34.23,5.31-.54h.87l5.48.54v1.49H254.94ZM259.77,70h1.51l.35,15.76v20h-1.86Zm0,0h3l13.71,33h-1L288.8,70h2l-14.52,35.72h-1.43Zm24.07,34.23,6.27-.54H291l6.48.54v1.49H283.86Zm5.31-14.62L289.26,70h2.88C292,75.37,292,80.88,292,86.41v2.87c0,5.49,0,11,.13,16.43H289C289.17,100.33,289.13,94.82,289.17,89.6ZM290.56,70h6.92v1.49L291,72h-.44Z" transform="translate(-50.46 -23.63)"/><path d="M300.76,104.22l4.89-.51h.88l5.42.51v1.49H300.76Zm15.7-34.56h1.92l12.16,36.05h-3L316.41,72.15l1-.32-11,33.88h-1.93Zm-6.45,22h14.56l.6,1.62H309.38Zm11.19,12.61,6.49-.51h.87l6.26.51v1.49H321.2Z" transform="translate(-50.46 -23.63)"/><path d="M363.56,101.69v1.69l-1.87.43,1.1-7.56h2.07l-.21,7.49a19.69,19.69,0,0,1-10.52,2.7c-10.48,0-17.47-7.61-17.47-18.57S344,69.25,354.14,69.25A18.94,18.94,0,0,1,364.25,72l.21,7.49h-2.07l-1.11-7.75,2,.59v1.94A13.22,13.22,0,0,0,354.5,71c-8.57,0-14.57,6.39-14.57,16.85s6,16.8,14.23,16.8A15.2,15.2,0,0,0,363.56,101.69Z" transform="translate(-50.46 -23.63)"/><path d="M401.9,87.87c0,11.38-7.16,18.57-15.69,18.57s-15.71-7-15.71-18.57c0-11.39,7.2-18.62,15.71-18.62S401.9,76.28,401.9,87.87Zm-15.69,16.8c8.07,0,12.42-7.91,12.42-16.8S394.28,71,386.21,71s-12.44,8-12.44,16.85S378.14,104.67,386.21,104.67Z" transform="translate(-50.46 -23.63)"/><path d="M406.47,70h6.65v2h-.39l-6.26-.54Zm.31,34.23,5.32-.54H413l5.47.54v1.49H406.78ZM411.62,70h1.5l.35,15.76v20h-1.85Zm0,0h3l13.7,33h-1L440.65,70h2l-14.53,35.72h-1.43Zm24.07,34.23,6.26-.54h.87l6.49.54v1.49H435.71ZM441,89.6,441.1,70H444c-.13,5.38-.13,10.89-.13,16.42v2.87c0,5.49,0,11,.13,16.43h-3.1C441,100.33,441,94.82,441,89.6ZM442.41,70h6.92v1.49l-6.49.54h-.43Z" transform="translate(-50.46 -23.63)"/><path d="M474.12,97.2c0-3.72-1.88-5.67-7.78-8l-2-.8c-5.56-2.21-8.58-5.26-8.58-10,0-6.1,5-9.09,10.83-9.09a13.84,13.84,0,0,1,8.58,2.66L475,78.48h-2l-.92-7.19,1.85,1v1.46a10.54,10.54,0,0,0-7.4-2.73c-4.69,0-8.13,2.23-8.13,6.77,0,3.81,2.45,6,6.51,7.57l2.1.82c7.52,3,9.72,5.78,9.72,10.6,0,6-5,9.66-11.91,9.66a19.11,19.11,0,0,1-10.09-2.84l.29-7h1.89l1,7.44-2-1v-1.54c3.13,2.33,5.28,3.1,8.88,3.1C470.25,104.67,474.12,102.18,474.12,97.2Z" transform="translate(-50.46 -23.63)"/><path d="M493.45,73.74V70.89h17.47v2.85l-7.84.8h-1.94ZM502,102.07v3.64h-8.52v-2.84l7.69-.8Zm-4.6-31.18h9.21c-.16,5.39-.16,10.9-.16,16.43v2.79c0,4.66,0,10.17.16,15.6h-9.21c.15-5.38.15-10.89.15-15.32V87.32C497.52,81.83,497.52,76.32,497.37,70.89Zm24,24.44-.53,10.38H502v-3h17.14l-4,3,2.08-10.38Z" transform="translate(-50.46 -23.63)"/><path d="M521.24,73.89l3.84-3-1.39,9.86h-4.42l.2-9.86h31.11l.16,9.86h-4.39L545,70.89l3.8,3Zm14.87,28.18,8,.8v2.84H526v-2.84l7.84-.8Zm-5.56-14.75c0-5.46,0-11-.15-16.43h9.21c-.16,5.36-.16,10.87-.16,16.43v1.93c0,5.49,0,11,.16,16.46H530.4c.15-5.35.15-10.86.15-16.43Z" transform="translate(-50.46 -23.63)"/><path d="M553.55,73.74V70.89h8.53v3.65h-.84Zm8.53,28.33v3.64h-8.53v-2.84l7.69-.8Zm-4.45-14.75c0-5.46,0-11-.16-16.43h9.21c-.16,5.36-.16,10.87-.16,16.43v1.75c0,5.67,0,11.18.16,16.64h-9.21c.16-5.35.16-10.86.16-16.6Zm4.45,15.34h6.3c6.06,0,9.82-5.19,9.82-14.38s-3.76-14.34-9.73-14.34h-6.39v-3h7.22c11.29,0,18.09,6.6,18.09,17.31,0,11.07-7.46,17.51-19,17.51h-6.27Z" transform="translate(-50.46 -23.63)"/><use transform="translate(0) scale(0.2)" xlink:href="#image"/><use transform="translate(90.66) scale(0.2)" xlink:href="#image"/><use transform="translate(43.14 78.15) scale(0.2)" xlink:href="#image"/></g></g></svg>